/* XPM */
static char *_528789ab0e344d6c63229e4bd247c09bTk9NcEEeE00jfrH[] = {
/* columns rows colors chars-per-pixel */
"50 50 160 2 ",
"   c None",
".  c #6E1919",
"X  c #791616",
"o  c #741518",
"O  c #7F131A",
"+  c #731818",
"@  c #7A1A1F",
"#  c #910D0C",
"$  c #8A150C",
"%  c #8B0F11",
"&  c #960D14",
"*  c #851216",
"=  c #8C1212",
"-  c #841815",
";  c #821619",
":  c #8A1519",
">  c #901212",
",  c #931C1D",
"<  c #9C1C1B",
"1  c #9C1919",
"2  c #A7190F",
"3  c #BC0F13",
"4  c #A71512",
"5  c #A31A15",
"6  c #A7161B",
"7  c #A31B1B",
"8  c #BE1612",
"9  c #BA1A15",
"0  c #BB151B",
"q  c #B51C1B",
"w  c #BB1B1B",
"e  c #8C261F",
"r  c #AB211E",
"t  c #951F21",
"y  c #981D20",
"u  c #A31C20",
"i  c #B71926",
"p  c #BA1A23",
"a  c #902627",
"s  c #C01214",
"d  c #C31418",
"f  c #C81119",
"g  c #C0181A",
"h  c #9C4D4D",
"j  c #9C5153",
"k  c #A1494B",
"l  c #3B89AE",
"z  c #2B8EB8",
"x  c #368EB7",
"c  c #3F8FB7",
"v  c #368FBB",
"b  c #398EBD",
"n  c #3990B6",
"m  c #3491BC",
"M  c #3A94BF",
"N  c #648F9F",
"B  c #4188A9",
"V  c #4E8EAA",
"C  c #5989A0",
"Z  c #5092AD",
"A  c #428CB5",
"S  c #4E8FB1",
"D  c #468DB8",
"F  c #4B94B5",
"G  c #4495BD",
"H  c #4A94B9",
"J  c #509ABF",
"K  c #648EA2",
"L  c #6690A5",
"P  c #6C96AB",
"I  c #6998AC",
"U  c #3D96C4",
"Y  c #3C98C5",
"T  c #4196C3",
"R  c #4399C6",
"E  c #479CCB",
"W  c #499CCB",
"Q  c #5EA3C8",
"!  c #4AA0D0",
"~  c #51ADD7",
"^  c #5AA8D5",
"/  c #55ABDA",
"(  c #5DB2DE",
")  c #60ABCC",
"_  c #7EA8C5",
"`  c #74ABCF",
"'  c #62AFDD",
"]  c #6CACD9",
"[  c #62B2DD",
"{  c #75B9DA",
"}  c #5EB3E4",
"|  c #5DB3E8",
" . c #6AAEE1",
".. c #61B3E4",
"X. c #60B4E8",
"o. c #78BCE6",
"O. c #76BDE2",
"+. c #76C1E3",
"@. c #ABA79F",
"#. c #8C95B2",
"$. c #A293A8",
"%. c #88A9AF",
"&. c #87A6B5",
"*. c #8BA6B8",
"=. c #83AABB",
"-. c #8DADBE",
";. c #9AACB2",
":. c #90AFBE",
">. c #95B0BE",
",. c #A6A7A5",
"<. c #A9A7A5",
"1. c #A5A9A6",
"2. c #AAAAA6",
"3. c #A5A7A9",
"4. c #A4AAAA",
"5. c #ACABAB",
"6. c #ACA6AB",
"7. c #B0A7A5",
"8. c #B1AEAC",
"9. c #ADB2AC",
"0. c #B1B0AE",
"q. c #B1AFB0",
"w. c #B2B5B4",
"e. c #B5B6B9",
"r. c #BDBDBF",
"t. c #CBA8AF",
"y. c #92A9CB",
"u. c #89B0C0",
"i. c #9BB4C4",
"p. c #BBBBD7",
"a. c #C3B5C0",
"s. c #D8B6C7",
"d. c #B7CCD2",
"f. c #B4C0D8",
"g. c #B7D1DE",
"h. c #92D5F4",
"j. c #A2D3E9",
"k. c #BED7E7",
"l. c #B7D9EC",
"z. c #A5DCF4",
"x. c #ADDFF0",
"c. c #A4DDFB",
"v. c #A8DDFA",
"b. c #B1DAF2",
"n. c gainsboro",
"m. c #C4CDE0",
"M. c gray89",
"N. c #E7E8E6",
"B. c #ECEAE6",
"V. c #ECECEA",
"C. c #FDEAE4",
"Z. c #F8F0EE",
"A. c #F5F5F7",
"S. c #FDFFFF",
"D. c #FEFEFE",
"F. c white",
"G. c #FEFEFF",
"H. c #FFFEFD",
"J. c #FEFDFA",
"K. c #F9F4F5",
/* pixels */
"                                                                                                    ",
"                                                                                                    ",
"                                                                                                    ",
"                                                                                                    ",
"                                                                                                    ",
"                                                                                                    ",
"                                                                                                    ",
"                                                                                                    ",
"                                                                                                    ",
"                                                                                                    ",
"                                                                                                    ",
"                                                                                                    ",
"                                                                                                    ",
"                                                                                                    ",
"                                                    M.M.D.D.D.D.D.D.D.D.D.D.M.n.                    ",
"                                                    r.w.9.e.w.w.w.w.w.w.e.w.q.e.                    ",
"                                                    e.5.0.5.8.5.8.8.5.8.9.5.6.5.                    ",
"                                                        e < 1 < < < < 1 < a                         ",
"                                                        6 7 y < 1 < , , 6 7                         ",
"                                                        w q o ; % = * . i q                         ",
"                                                        p w : s.m.y.$.* w w                         ",
"                                                        p w > p.h.] #.= w q                         ",
"                                                        0 q $ f.j.@ O + i 0               D.        ",
"                                                        9 q - t.a.& # = q q               A.        ",
"                                                        9 r X * = d f s d g 1 h   A.D.D.N.4.        ",
"                                                        3 0 q q q 4 5 5 2 < C.Z.K.8.6.7.>.`         ",
"        D.J.                                            8 s g w w 7 < u < t D.D.J.4.4.,.u.}         ",
"        <.6.3.D.D.D.D.D.D.D.D.D.                        1 7 7 < , J.D.J.D.J.1.6.6.V U T Q v.        ",
"        :.;.-.B.V.V.V.V.V.V.V.V.                        k k h k j B.B.V.B.V.&.*.=.J E R ) c.        ",
"        M T Z @.<.5.2.2.2.1.1.<.V.D.D.J.D.D.D.D.D.D.D.D.D.J.D.D.D.1.2.2.6.4.G R Y } ....+.z.        ",
"        ( ' ( H F F F F F H H F %.,.3.,.<.<.<.,.,.<.<.,.3.<.<.<.4.S F H H H ..| } } ....O.v.        ",
"        | ..[ U U U U U U U U T =.4.4.4.4.4.4.4.4.4.4.4.4.4.1.4.;.G U U U Y ........} ..{ x.        ",
"        c.c.v.| | | | | } } } } R M T U U U U U U U U U U U U U U } } ........| } b n c.g.          ",
"        l.l.b.o...............} ! E E E E E E E E E E E W W E E E ....} ..../ ~ / _ -.k.            ",
"            d.z.[ ......................} } } ..........} ..} ..........X...m z m                   ",
"            i...b b b b b b v b / ..} ........................M b b b b b l                         ",
"            i. .c c c c c c A A ^ | | ..................} | | D A c c A A B                         ",
"                                C x v v v v v v v v v v v v v                                       ",
"                                  P P P P L K K K L L K K N I                                       ",
"                                                                                                    ",
"                                                                                                    ",
"                                                                                                    ",
"                                                                                                    ",
"                                                                                                    ",
"                                                                                                    ",
"                                                                                                    ",
"                                                                                                    ",
"                                                                                                    ",
"                                                                                                    ",
"                                                                                                    "
};
