/* XPM */
static char *_8423cf46bca4c38db9353226684b3a0PsGN0lcbcrExSPkm[] = {
/* columns rows colors chars-per-pixel */
"50 50 118 2 ",
"   c None",
".  c #010101",
"X  c #0C0C0C",
"o  c #161616",
"O  c #1A1A1A",
"+  c #252525",
"@  c #292929",
"#  c #363636",
"$  c #3A3A3A",
"%  c #404040",
"&  c gray30",
"*  c #535353",
"=  c DimGray",
"-  c #951F1E",
";  c #9A1E1D",
":  c #A51F1E",
">  c #B31B1F",
",  c #B91D1C",
"<  c #8F221D",
"1  c #94211E",
"2  c #8D1F25",
"3  c #8C1F2A",
"4  c #951E23",
"5  c #9A1D23",
"6  c #961E29",
"7  c #A31D21",
"8  c #AB1C21",
"9  c #BD1C23",
"0  c #8B2225",
"q  c #8E2528",
"w  c #942023",
"e  c #9A2325",
"r  c #93232B",
"t  c #9B252B",
"y  c #9A292B",
"u  c #8D2330",
"i  c #9C2B33",
"p  c #A32226",
"a  c #A72328",
"s  c #A02831",
"d  c #EA1C1E",
"f  c #C31D25",
"g  c #C41C28",
"h  c #D71E26",
"j  c #DB1D26",
"k  c #D41F2A",
"l  c #DA1D2A",
"z  c #E61D25",
"x  c #E81E24",
"c  c #E91E24",
"v  c #E91C26",
"b  c #E81D26",
"n  c #EB1C26",
"m  c #EA1C27",
"M  c #EB1C27",
"N  c #E81E27",
"B  c #EA1E26",
"V  c #EB1C24",
"C  c #EC1D25",
"Z  c #EB1C24",
"A  c #E21D2B",
"S  c #E51F29",
"D  c #E71E29",
"F  c #E61E2B",
"G  c #E01F2D",
"H  c #E61F2B",
"J  c #E81D28",
"K  c #E81E29",
"L  c #EB1D29",
"P  c #F21924",
"I  c #F11926",
"U  c #F11926",
"Y  c #C5232C",
"T  c #D2212A",
"R  c #DE2328",
"E  c #DD2A34",
"W  c #E12023",
"Q  c #E42025",
"!  c #E42026",
"~  c #E92124",
"^  c #EA2127",
"/  c #E1202D",
"(  c #E4202C",
")  c #E5222C",
"_  c #E6212B",
"`  c #EB222A",
"'  c #EC232C",
"]  c #F12531",
"[  c #F02631",
"{  c #963C42",
"}  c #963F46",
"|  c #993A41",
" . c #9B3A42",
".. c #9D3943",
"X. c #9C3B42",
"o. c #993E45",
"O. c #904045",
"+. c #9C4043",
"@. c #924A4E",
"#. c #904F4F",
"$. c #954D52",
"%. c #944E52",
"&. c #964D52",
"*. c #994D54",
"=. c #994D55",
"-. c #9A4E53",
";. c #965153",
":. c #9A565A",
">. c #A34449",
",. c #A05458",
"<. c #A7A7A7",
"1. c #AAAAAA",
"2. c gray67",
"3. c gray79",
"4. c #CBCBCB",
"5. c gray80",
"6. c #CDCDCD",
"7. c #CECECE",
/* pixels */
"                                                                                                    ",
"                                                                                                    ",
"                                                                                                    ",
"                                                                                                    ",
"                                                                                                    ",
"                                                                                                    ",
"                                                                                                    ",
"                                                                                                    ",
"                                                                                                    ",
"                                                                                                    ",
"                                                                                                    ",
"                                                                                                    ",
"                                  . X .                     . . .                                   ",
"                                  X X .                     . . .                                   ",
"                              @ .       .                 .       . @                               ",
"                            .             . .         . .             .                             ",
"                            .             . .         . .             .                             ",
"                                                                                                    ",
"                              @ . . . . . . X X . . . . . . . . X . @                               ",
"                              @ . . . . . . . . . . . . . . . . X . @                               ",
"    1 4 4                   . <.5.O O O * + O .     . 5.5.O + + & O o .                   5 4 w     ",
"  4 d Z Z 6 r               . o O 5.O O + O O .     . O o 4.+ O O O o .               0 4 Z Z Z 4   ",
"  w Z v v > p               . o O 2.% $ O O O .     . O + 2.% % O O o .               p 8 M v d w   ",
"  4 Z v v v W e             . o O O 4.4.O O O .     . + + O 5.5.O O o .             1 v Z v v ^ y   ",
"  4 Z v v v z 4 4 4 5         @ . O O O 5.. .         . . O O O 5.. @         5 4 4 4 S Z v z ^ 4   ",
"  w Z v v v ! 5 f g g @.        # X X X = # #         # # X X X = #         @.g g f 4 S Z Z z Z 4   ",
"  1 Z V Z Z ! 5 Z v v 4 %.        . . . .                 . . . .         %.4 v v v 5 S Z Z Z d w   ",
"    1 t Z Z S w Z Z v Z f i         q 4                     4 r         w f v v Z Z 5 S P Z 5 4     ",
"    w 5 v v P j : 9 v Z 9 i             {     >.| ..|     ..            w f v v , 8 G Z Z Z 5 4     ",
"    e ; v Z v v w 8 Z [ Y ;             w     5 4 4 4     4             5 f Z Z 8 4 ` v v Z 5 5     ",
"        4 Z Z Z Z j y s =.                r w Z v v v 5 3                 =.4 w E [ Z Z Z w         ",
"          7 5 5 5 y t w q 0             r ) A v v v v v / 0             r 5 w w a ; 5 5 7           ",
"          5 4 4 4 4 - 4 4 w             6 ) v v v v Z M K r             w 4 y y 4 4 4 4 4           ",
"                            4     r y e v Z v v v v Z Z Z K w w w     5                             ",
"                              } 2 z v R Z v v v Z Z Z Z v v S K v 0 O.                              ",
"                              +.5 Z V P Z v v v Z M Z Z v Z P v Z w }                               ",
"                            6 l z Z ; 5 Z v v v z ` Z v v Z 4 ; Z x k 5                             ",
"                        #.y 4 h v v v P 5 _ v ' ' v v Z z 5 v v v Z h w 5 %.                        ",
"                        ;.t 4 T Z v v V 4 _ z ` v v v M S 5 Z Z ` ' k w 4 %.                        ",
"                        :.4 P Z Z v v P Z e y 4 4 4 4 4 1 Z M ' ` Z z v 4 %.                        ",
"                      y < 4 w l v v v Z ' ) Z Z Z Z Z Z Z Z ' ' V Z k 4 5 4 5                       ",
"                      2 4 4 w k K v M ' ' Z Z Z Z Z Z M M z M v Z v k w 4 0 4                       ",
"                    5       w w 4 Z Z Z Z Z Z Z Z Z Z Z L ' Z Z Z w 4 4       y                     ",
"                        $.1       4 4 4 4 4 4 4 4 4 4 6 y w 4 4 ;       4 %.                        ",
"                        :.q       r q q q q q q q q r q r q q q q       u ,.                        ",
"                      5 *.                                                $.4                       ",
"                      5 %.                                                *.4                       ",
"                      o.                                                    o.                      ",
"                                                                                                    ",
"                                                                                                    "
};
