/* XPM */
static char *d55167132ba04182cb916a0924198bc74hT71DSyvY26UMbT[] = {
/* columns rows colors chars-per-pixel */
"50 50 194 2 ",
"   c None",
".  c #333F30",
"X  c #2F462D",
"o  c #2F492D",
"O  c #30442D",
"+  c #33492D",
"@  c #304630",
"#  c #344C32",
"$  c #3A4F33",
"%  c #365335",
"&  c #395335",
"*  c #3A5338",
"=  c #36523B",
"-  c #424D3F",
";  c #415439",
":  c #475A3C",
">  c #45573A",
",  c #656436",
"<  c #4E4F47",
"1  c #485747",
"2  c #565F4A",
"3  c #5C6A47",
"4  c #576549",
"5  c #5C6A4A",
"6  c #576447",
"7  c #586451",
"8  c #5F7257",
"9  c #606E4C",
"0  c #63714F",
"q  c #647155",
"w  c #697957",
"e  c #6B775D",
"r  c #6B795C",
"t  c #707F5E",
"y  c #6D7961",
"u  c #727F62",
"i  c #696E73",
"p  c #716E77",
"a  c #737A7B",
"s  c #6C7472",
"d  c #B87F1B",
"f  c #B37E25",
"g  c #8C7850",
"h  c #75845F",
"j  c #4B9D63",
"k  c #599B65",
"l  c #788765",
"z  c #7B8A69",
"x  c #778567",
"c  c #45A164",
"v  c #48A064",
"b  c #AF831C",
"n  c #B5831D",
"m  c #AD8226",
"M  c #A98230",
"N  c #CB9929",
"B  c #D2972A",
"V  c #D19D2C",
"C  c #C59438",
"Z  c #CBA128",
"A  c #EDBD3B",
"S  c #E9BC34",
"D  c #F2BB3A",
"F  c #F0BE37",
"G  c #E9C03B",
"H  c #838256",
"J  c #A98E4B",
"K  c #808C6E",
"L  c #939A6C",
"P  c #8D9B76",
"I  c #899679",
"U  c #8D9C79",
"Y  c #889477",
"T  c #929E7B",
"R  c #949A71",
"E  c #A5947F",
"W  c #91A17A",
"Q  c #90A177",
"!  c #AFAC7B",
"~  c #B5B879",
"^  c #A5A36E",
"/  c #CFA84F",
"(  c #EABD43",
")  c #E7BE4B",
"_  c #E4BE54",
"`  c #E6C759",
"'  c #F6CA5A",
"]  c #F6CE6E",
"[  c #FBCE6D",
"{  c #F9D06E",
"}  c #F6CE72",
"|  c #F8CE72",
" . c #F5CB79",
".. c #F7D176",
"X. c #E6C467",
"o. c #7A7D80",
"O. c #7D8182",
"+. c #72B686",
"@. c #72B987",
"#. c #8C8D8C",
"$. c #919A87",
"%. c #959696",
"&. c #969996",
"*. c #989997",
"=. c #959799",
"-. c #969999",
";. c #999A9A",
":. c #8E9698",
">. c #95A383",
",. c #9BAB85",
"<. c #96A48C",
"1. c #99A58D",
"2. c #9FAF8B",
"3. c #97A490",
"4. c #99A592",
"5. c #A0AD8A",
"6. c #ABBC8E",
"7. c #A7B68C",
"8. c #A5AB9B",
"9. c #A2AB93",
"0. c #ABBC91",
"q. c #AEBD9A",
"w. c #ADB796",
"e. c #B6BA85",
"r. c #979AA4",
"t. c #9FA1A1",
"y. c #9FA5AB",
"u. c gray67",
"i. c #A5AAA4",
"p. c #B3A7A0",
"a. c #A5AAB0",
"s. c #ABAFBA",
"d. c #B7C1A4",
"f. c #BAC4AA",
"g. c #BFC7B2",
"h. c #F7D58B",
"j. c #F9D58A",
"k. c #F9D686",
"l. c #F5D794",
"z. c #F7DD9C",
"x. c #FADD9D",
"c. c #C8CAAA",
"v. c #CCD4AE",
"b. c #C3CBB4",
"n. c #C4C8B7",
"m. c #CCD3B6",
"M. c #D0D9BE",
"N. c #F6DEA3",
"B. c #FADDA3",
"V. c #F5DFAB",
"C. c #FADFAA",
"Z. c #FCDFB0",
"A. c #DDE6BE",
"S. c #F7E0AB",
"D. c #F8E0AA",
"F. c #F9E3A2",
"G. c #BABFCC",
"H. c #B3BBC3",
"J. c #BABFD2",
"K. c #BBC2CE",
"L. c #BAC2D2",
"P. c gray81",
"I. c #C4C6C5",
"U. c #D3D6C4",
"Y. c #D5DEC8",
"T. c #D4D8C5",
"R. c #C9CFD5",
"E. c #CBD2DB",
"W. c #CFD0D5",
"Q. c #D5D5D5",
"!. c #CAD4C1",
"~. c #DDE2C2",
"^. c #DDE4CD",
"/. c #D7E0C9",
"(. c #E2E5C2",
"). c #EDEACB",
"_. c #EAEBC4",
"`. c #E4E7D3",
"'. c #E6EAD5",
"]. c #E8EAD7",
"[. c #E6EBD9",
"{. c #E9ECD9",
"}. c #E7E7DB",
"|. c #EAF1DD",
" X c #F7F4D8",
".X c #E5E5E5",
"XX c #E6E6E6",
"oX c #E4E4E3",
"OX c #E6E8EA",
"+X c #F6F6F6",
"@X c white",
"#X c #FDFEFD",
"$X c #FEFEFE",
"%X c #F5F8F8",
/* pixels */
"                                                                                                    ",
"                                                                                                    ",
"                                                                                                    ",
"                        *.*.                                                                        ",
"                      #.@X@X*.                                                                      ",
"                    ;.@X@XXX*.                                                                      ",
"                  u.#X+XoX;.a.;.                                                                    ",
"                  P.@XXXu.%.E.&.                    8.<.!.n.                                        ",
"                i.#XXXoX%.R.E.=.                  8.1.'.[.'.n.                                      ",
"                t.@XXXoXW.E.=.;.                  <.[.{.^.].'.U.                                    ",
"                t.@XXXXXE.E.&.K.%.              3./.'.0.0.0.'.'.T.                                  ",
"                t.@XXXXXE.=.&.L.&.            <.f.'.w.6.6.6.7.[.'.'.                                ",
"                t.@XXXXXE.;.K.L.&.          1.8.].d.6.6.6.0.6.7.'.'.U.                              ",
"                t.@XXXoXE.E.L.L.L.=.      <.'.[.m.6.6.6.~.).0.6.6.[.'.m.                            ",
"                  P.@XoXXXE.E.L.L.&.    1.b.'.^.6.6.6.(._.). X0.7.0.}.'.U.                          ",
"                  Q.@X@XXXoXL.J.a *.  4.b.'.'.6.6.6.0.(.c c c  X X6.6.`.'.T.                        ",
"                    +X@X@XoXL.G.o.a Z D [.'.0.6.6.0.~.j j +.+.c  X6.6.0.'.{.n.                      ",
"                    t.*.@X@XK.a.s V F A A 6.0.6.6.(.~.j +.+.c v  X X6.6.0.'.].                      ",
"                        #.@X#Xp.V D ( A ] A ~ 6.6.A.).j c @.c j  X6.6.6.6.7.].m.                    ",
"                          %.E V A ( } ] ] ] _ e.6.6.6.).k k k ).m.6.0.0.0.'.'.'.K                   ",
"                            N S ' ] } ] ] ] [ ` ~ 0.6.6.6.6.v.c.6.6.6.,.f.{.9.I 5 5                 ",
"                        J b V A ] ] ] ] ] ] ] { ` ^ U 7.6.6.6.6.6.6.W ^.{.e 3 5 5 5                 ",
"                      $.1.C V } ] ] ] ] ] ] } k...) R U T 6.0.7.U U {.[.9 5 5 5 5 5                 ",
"                    i.1.I 4.V A ] ] ] ] ] } k.k.j.| ) U U P P I I <.'.5 5 5 5                       ",
"                    <.[.U P 1.A ] | ] } h.h.h.k.k.j.C.A U L U U I '.6 5 5 5 5                       ",
"                  <.^.I P P U U F } } h.h.j.h.k.j.k.F.S.G U P U '.5 9 3 3 2             %.&.&.&.%.  ",
"                <.g.>.U U 0.6.P U F  .h.h.h.k.k.k.x.S.D.S.D $.'.3 5 5 3 5       *.*.;.*.@X@X@X@X*.  ",
"              3.9.d.P 0.6.6.6.6.P P A } k.h.j.k.z.D.N.N.D.z.d = 3 5 5 3       *.;.;.@X@X@X@X@XE.*.  ",
"            4.4.M.U 7.6.z e y 6.7.7.P A k.k.h.l.S.S.S.N.N.f B n * 3 5 &.&.*.*.I.@X@X@X@X@XoXE.L.*.  ",
"    & 8 8 Y <.'.U ,.6.w y 6.6.6.6.6.0.P D k.l.V.S.S.S.B.b V *.%.;.*.*.*.;.@X@X@XOXoXoXoXXXL.K.&.*.  ",
"    & % `.[.'.>.Q 6.x y r x 0.6.6.7.6.P L ( V.N.C.C.N.b p i i *.;.@X@X@X@X@XoXoXXXE.E.E.L.L.J.;.    ",
"    & * `.'.T U 0.6.t q.0.w z 0.r r 0.6.P U _ Z.N.B.m i a @X@X@X@X@XXXXXXXXXOXE.L.K.K.K.K.K.*.*.    ",
"    & 5 ; ^.{.>.W 6.r q q.0.r r r q y 0.P P L X.B.C B < %X#X#XoXoXoXXXE.E.E.E.L.L.r.=.=.&.*.%.      ",
"  % : 5 5 : b.'.5.,.6.h x l l l 2.6.u r 6.P P ! / N B g g :.*.Q.E.E.E.E.E.E.R.L.L.L.L.H.*.;.        ",
"  & ; 5 5 5 4 Y ^.q.7.6.6.6.6.7.>.z K r 6.P b.Y.H m B n       O.a.L.K.E.E.E.K.y.y.y.y.              ",
"    & & 5 5 5 4 7 '.>.P 0.r r 6.6.e e 0.0./.'.q 3 , M           *.L.K.K.K.L.K.G.t.*.                ",
"      * 5 5 5 5 U >.{.Y P 0.e r w r 0.'.'.'.6 5 5 $               =.*.=.L.L.L.s.=.                  ",
"        & 5 5 5 0 w Y.{.P U 0.0.0.0.^.].'.; 5 5 :                     ;.*.*.*.;.                    ",
"          % 5 >.5 z : |.'.P P P U U `.].# 5 5 4                                                     ",
"            & 5 W z : & '.[.P U ].].'.# 5 5 # 1                                                     ",
"              $ 0 W U + |.].'.[.[.].% # 5 X X                                                       ",
"                % r W W # [.[.].# % * % X @                                                         ",
"                  & U U W X o * # & X X @                                                           ",
"                    & >.W X + # X X X #                                                             ",
"                    7 >.W @ X X X X X                                                               ",
"                      . >.O X X X O                                                                 ",
"                        - @ o X 1                                                                   ",
"                                                                                                    ",
"                                                                                                    ",
"                                                                                                    "
};
