/* XPM */
static char *_1abbe13d67d4a7ab0320a1dc39b9ba31gICwV3tt2L7I9dq[] = {
/* columns rows colors chars-per-pixel */
"50 50 177 2 ",
"   c None",
".  c #151A1E",
"X  c #181D1F",
"o  c #17271F",
"O  c #171C20",
"+  c #191E21",
"@  c #1D2225",
"#  c #21262A",
"$  c #252A2E",
"%  c #272C30",
"&  c #292E31",
"*  c #2D3235",
"=  c #313539",
"-  c #363A3D",
";  c #393D3F",
":  c #1A4F23",
">  c #1C5125",
",  c #1D572E",
"<  c #1D5933",
"1  c #1E5E3A",
"2  c #235A2E",
"3  c #1F603E",
"4  c #2E693C",
"5  c #326839",
"6  c #786435",
"7  c #3A3E41",
"8  c #2A404A",
"9  c #3D4245",
"0  c #1F6444",
"q  c #216647",
"w  c #206748",
"e  c #226A4C",
"r  c #226D53",
"t  c #2D6E52",
"y  c #247056",
"u  c #2C775A",
"i  c #2B7559",
"p  c #337F63",
"a  c #404447",
"s  c #42464A",
"d  c #464A4D",
"f  c #484C4F",
"g  c #4A4E51",
"h  c #555B56",
"j  c #4C5456",
"k  c #685E45",
"l  c #41784A",
"z  c #5D6659",
"x  c #4A5C62",
"c  c #4B717D",
"v  c #536666",
"b  c #757D64",
"n  c #637D75",
"m  c #887742",
"M  c #3E8A6E",
"N  c #3D8C72",
"B  c #47895F",
"V  c #428879",
"C  c #459378",
"Z  c #499678",
"A  c #478B64",
"S  c #6F8D7E",
"D  c #7B8F75",
"F  c #748E7C",
"G  c #77907E",
"H  c #77856B",
"J  c #B38F3E",
"K  c #96915E",
"L  c #9B915B",
"P  c #8F8657",
"I  c #AC934D",
"U  c #B79544",
"Y  c #BA9541",
"T  c #B3954A",
"R  c #BB9A4C",
"E  c #B6984C",
"W  c #A49355",
"Q  c #AB9653",
"!  c #AD9B5B",
"~  c #B49951",
"^  c #BC9F54",
"/  c #BEA157",
"(  c #8F8F62",
")  c #848F6D",
"_  c #8C946F",
"`  c #9C9765",
"'  c #999769",
"]  c #879678",
"[  c #9CA078",
"{  c #AEA066",
"}  c #BFB37D",
"|  c #B0A671",
" . c #C19E4E",
".. c #C6AE6A",
"X. c #D0AE62",
"o. c #D3B66F",
"O. c #DBBA6F",
"+. c #C2AE70",
"@. c #C2B176",
"#. c #CFB876",
"$. c #DABE78",
"%. c #E1C27B",
"&. c #347B85",
"*. c #497684",
"=. c #3A8092",
"-. c #3D87A6",
";. c #3E88A6",
":. c #3F89A8",
">. c #5C8A8D",
",. c #588388",
"<. c #49879D",
"1. c #4B899B",
"2. c #46849A",
"3. c #538A94",
"4. c #558C98",
"5. c #568891",
"6. c #658B85",
"7. c #628B89",
"8. c #6C8F85",
"9. c #799382",
"0. c #639297",
"q. c #799B92",
"w. c #51A085",
"e. c #7CA19D",
"r. c #4389A4",
"t. c #448DAA",
"y. c #498BA0",
"u. c #5692A3",
"i. c #5B96A7",
"p. c #4D94B3",
"a. c #5198B6",
"s. c #639BA8",
"d. c #5CA1BE",
"f. c #7CA8AD",
"g. c #77AAB5",
"h. c #6AABC4",
"j. c #6EAFCA",
"k. c #63A7C4",
"l. c #6DB0CD",
"z. c #76B2C7",
"x. c #79BAD5",
"c. c #8A9D84",
"v. c #84A49A",
"b. c #9DB09A",
"n. c #A5B59D",
"m. c #ADB99D",
"M. c #B5B994",
"N. c #A7AD89",
"B. c #87AAA5",
"V. c #9FBAAD",
"C. c #96B4AC",
"Z. c #93BABB",
"A. c #85B1B6",
"S. c #B0BFA4",
"D. c #C0BE94",
"F. c #C9BC86",
"G. c #BFC5A4",
"H. c #BAC5A9",
"J. c #B4C2AA",
"K. c #ABC2B2",
"L. c #A2C2BC",
"P. c #B2C4B0",
"I. c #D3C48C",
"U. c #DCC88D",
"Y. c #D3C287",
"T. c #CCC79C",
"R. c #CAC598",
"E. c #D4C995",
"W. c #DBCA90",
"Q. c #E4CB8A",
"!. c #E2C885",
"~. c #C7C7A0",
"^. c #8DBFCD",
"/. c #8CBBC4",
"(. c #94BEC3",
"). c #83BED4",
"_. c #97C1C5",
/* pixels */
"                          r                                                                         ",
"                        y N                                                                         ",
"                          C                                                                         ",
"                          r                                                                         ",
"                            u r                                                                     ",
"                            C r                                                                     ",
"                        y C r                                                                       ",
"                          p                                                                         ",
"                          y r                                                                       ",
"                          e w.r                                                                     ",
"                          r u                                                                       ",
"                        C e           w                                                             ",
"                        M u         p w                                                             ",
"                          w e w     t                                               :.-.            ",
"              -.            A 0     0                                               :.p.            ",
"              l.-.          e       q 1                                       :.    -.l.            ",
"              t.r.        B 0     1 Z 1                                       k.-.  -.x.            ",
"              r.j.  -.-.  0 &.3   <                                           t.d.  -.x.            ",
"          x.    /.  <.i.    a.t 4 <                                       <.  y.).  -.l.            ",
"          s.5.  K.  3.Z.    j.&.2 ,                                     1.4.  4._.  r.h.    t.      ",
"        >.7.e.  R.  6.V.    x.=.  >                                   >.(.    8.Z.  g.r.  t.-.      ",
"        q.F P.  F.  R._   0.).V   : 5                                 9.G D ] ] v.>.L.<.r.z.        ",
"        F S.M.W +.W U.K _ _.6.l :.2 >                                 b.( ' ` ` c.F V.  s.y.        ",
"          G.| ....^ ~ { T.]   4.h.o + @ @ O . . .     . . . . . . .   n.  ! Q Q G.N.c.  L.3.<.      ",
"    >.0.  K E./ %.R E Q.W L m.^.. g g g g g g g g f f g g g g g g g f O m ~ }   ~.D.K   K.>.4.<.    ",
"      /.F   T !.%.Y R o.!.Q.h * g g g g g g g g g g g g g g g g g g g g 9 . T.U @.R.I W H.D 6.u.    ",
"      S P.W     Y O. .R k @ g & g a g g g g g g g g g g g g g g g g g g f f . Y.Y I.U T ~.K ) f.    ",
"        K Y.%.Y J + . - g @ g g $ g g g g g g g g g g g g g g g g g g g g * g @ U.$.Y U E.  [ v.    ",
"            Y @ = g g & 9 g g g * f g g g g g g g g g g g g g g g g g g g g g g +  .Y o.#.E G.W     ",
"          . % g g g g g g g g g g f @ g g g g g g g g g g g g g g g g g g g f g g = X Q.Y W.R       ",
"    . # - g g g g g g g g g g g g g g * g g g g g g g g g g g g g g g g g g g = g g g # 6 Y         ",
"  . f g f g g g g g g g g @ g g g f g g & $ g g g g g g g g g g g g g g g g @ f g g g g a .         ",
"  . g g * . g g g g g f + g g g g 9 g g g g # @ a g g g g g g g g g g g g a * g g g g g = s .       ",
"  # g g g g s % g @ O f g g g g g g 7 g g g g g 9 . a g g g g f a 7 7 g f # g g g g g g g g 9       ",
"  * g g g g g g g g g g g g g g g g $ g g g g g g g s # # # * a f g g + . g g g g g g g f + g .     ",
"  * g g g g g g g & g g g g g g g g - g g g g g g g g g g g g g g g f g g g g g g g g = g g = 9     ",
"  * g g g g g g g - g g g g g g g g + g g g g g g g g g g g g g g g g g g & g g g g f g g g 9 g .   ",
"  & g g g s g g g g g . & + g g g g g # g g g g g g g g g g g g g g g g g 9 a g g g a g g g g g .   ",
"  O g g g $ g g g f . g g g . g g g g g . 9 g g g g g g g g g g g g g g g t.7 . 9 g g g g g g * O   ",
"  . g f # f g g $ * g g $ g g @ g g g g g g * g f f # 9 g g g g g g g g g j.g g f @ g g g g g g 9   ",
"    . . * g 9 . g 7 f g & * g f . f g g g g g * f g g g g g g g g g g g g x.x *.2.@ g g g g g g g . ",
"          + & g g g g g g f a g g @ g g g g g 7 g g g g g g g g g g g g g z.5.5.u.& g g g g g g g   ",
"          . g g f g g f g g + g f g $ g g g g g 9 g g g g g g g g g g g g 6.B.S A.9 g g g g g g .   ",
"          . f g g a # g g g a g g 9 $ g g g g g . * f g g g g g g 2.j 7.9.h P.b L.v c g g 7 . .     ",
"            . * g g g g g g g a @ g g = g g g g g g 9 O g g g g g u.>.j n.( | K H.n C.8 .           ",
"                @ g g g g g g g f * . . # g g g g g g g * g g g g ,.^.) P I.! @.T.z J.              ",
"                  . . . . . . .           . @ $ # . . . . + 9 g ,.9 H J.W U.E #.Y.K ]               ",
"                                                              . >.9.; P U.R ^ E T U.W               ",
"                                                                  B.M.~ R Y O.X.E I                 ",
"                                                                    T U Y                           "
};
