/* XPM */
static char *_49ea43f83cc45418253670280598b48kCHIxAUOTla9yVVI[] = {
/* columns rows colors chars-per-pixel */
"50 50 36 1 ",
"  c #CCBDA6",
". c #CFBFA8",
"X c #CEC0A7",
"o c #CFC0A9",
"O c #D3C4AD",
"+ c #D6C7B0",
"@ c #D7C8B1",
"# c #DACAB4",
"$ c #DBCCB5",
"% c #DCCDB4",
"& c #DDCDB7",
"* c #DECEB8",
"= c #DED0B6",
"- c #DFD0BA",
"; c #DFD1BC",
": c #E0CEB7",
"> c #E0D0B7",
", c #E0D0B9",
"< c #E0D0BA",
"1 c #E3D4BB",
"2 c #E4D4BB",
"3 c #E2D2BC",
"4 c #E3D3BC",
"5 c #E3D4BD",
"6 c #E5D5BF",
"7 c #E8D6BF",
"8 c #E6D8BF",
"9 c #E8D9BF",
"0 c #E6D7C1",
"q c #E7D8C1",
"w c #E9D9C3",
"e c #EADAC4",
"r c #EBDCC5",
"t c #ECDCC6",
"y c #EFE1C9",
"u c #F1E1CA",
/* pixels */
"*&6&&*3#3<*<O O<<6660+ O@<00<<&#&+O#@>9&+OO@&<06<3",
"@@O<3<33#<&+&60e3w6+o*633O#@O.#&33&ww003<0qt60#@OO",
"003*53w6*<66<<<&O@+w0w3*663030t<3&<& OO@<30@OO<6<q",
"OO**&6qO@<&&O@@*<60*@OO&@&O**3OO+*#*<e03@<&0w000.#",
"6606<O.tw03<<&ww<6<<55563363-#<06w6q03#&<<65*OO&*3",
"0$O+#066.+&&06w<  +#&<<O+&333qe3++##&@#<$@# @<t9@#",
"&@5w60<O&6w0*OO@3r563<*&66&###+O&w6<wwr<<&6*6w6<<6",
"66e+@@#wq0+&&05q66@*3&6--*350630w3O+OOO&*3&<@O+&@O",
"&&O#6w6@OO***&<& @@&&**#@@&+@+&&@@*&06w6333*3<e026",
"*366w&@<60033<<&6e65666&3<00<w<6<6-3<0#&+&@@&-+O$@",
"<#@#O*<&@OOO&#*<0OO#@O#@O@O***6@&*-66<&3603*-3#061",
"<<6*w0060666636#@@060w500&<*&<*&6<&@&$&&3-*$<&6w&3",
"-#@#O+O+O+*33&3<w5q*#+OOO&36<<<&*<<6*etw@+@+&##O@<",
"@@33660005@O+&-&eq3 @<0w<00* OO$03wt&@OO+twt55*#@&",
"*<&*O++OO@@336ww#OO5qw6*O&OO&&6e&*OO$<300w6<<66q0<",
"*66<6w60w666363@+-0wrOo+#&633w3+*O#*<#+@*OO#&#+O@+",
"<<#O$w<#&*0*@#&*3qq- @56035w6O@**6<5<0666636536336",
"5$o#$O<*33O#@653$-o@<<w355<O@O@&#33O&+O&O@OO@O&606",
"$36066<03@@w56<&OO$qq6&@O+@336w6w5#&356666560e66OO",
"66<<6**OO-q5<&O<<-<e@OO&O<036q$36<<*&+*@#O<<<*&&*e",
"*#&**O#@#@O.*&6q<5@&$@-wq6<<@+#+$O&&<<<03w6***0e8&",
"3<606ww0<*<<<<$@<<<*#@@@oOO&+*<<6<0w-&*3@+#&<<<@&<",
"@@&@@OOOO#6<63<<-*<w36w63<6O<<66q6O@<6#@333<<#+<&=",
"6603<660qeqO+@&*5<*@O&+O#OOO0<<&@O<6660w@@3<6666q3",
"#@O@+3*66O @q035@6#6<0360&6e0<*30w63<+OO#*<6ewoO@O",
"30366<&#&*0t0<*66&6&*&O+#O&#OOO@*@ O<<06eq6@+O6e65",
"O&<*+O@qew6OO#@@O+<6<<*30630<663&+3ww63#+O@O&05@@&",
"33<-&ww5-@oO0w000<3@3<<O@*O&6#@*3603OOO**3e5666<33",
"*&6-w6< O&6<t3<**<#&6-#*3333*@&3##.+*wq6<6#O@*6ww-",
"#&#OO.@&3063.O@#<@#&&-*-03*&<<635<0500q<6<&<66@&@@",
"065<66t6e<OO*60q0<33q35&+**##@+++O#OO+&&**36@@<063",
"++&*-6#+O##<5563<<##@@*<<0q3<5*066<530033<*&$<@@*&",
"&*6q<*@&q36q5r<<O@&&<*33*O+@$O@+@&<<;*&6<w533630w6",
"3-6#@*<03-&&# #<65w066 O@53q66$*3&@@*<6&#&*##+O+@+",
"&<$<6e0*  @#<3t06.+..&erw6*6 o&5wq60<<3<360#3<66<3",
"OO-5*#O@*0t603*O+$www06#OO:36wt*@@+&#6066O+O**6<3+",
"66@#3w30e0O.O#<3ww0*O#+O66ww36 O+*www0@&533<3&&@+3",
"-63<<&33 O@5q<1qOO @06006<OO*#&w363+OO-<*<3&$*6*0&",
"3&&@0**@qww<<-&+#q06w0&OO*5ewq6&@<3566536<*#&<&<3#",
"#56&O&*<<@OO@-6660@ @O<366q5O @<6<$@@+OO#O#w3w6<&#",
"<#3*<*#*66603&&&@+O&<6@OO@O@$<#$6556630w66w0O@+#6<",
"<&<*<<*3#@@@&3-w&66w<*0q-<-q3w3q<q<$OO<666* @33<@#",
"*<*<63<3-55<@@++&@+O+++@&O535@ O+OO-<06#O O&u6*6<5",
"@<3&+&#*<*3<*60w0563w03&w0@+O@$5q600w@O@-qqr&O++$$",
"@<+#@o #*++#$@O@+##3<*5-@O 65w5q5qtOO$-yw<@OO$<<<&",
"6<366<03&+366<653w33<<<#*$3wq56@O@$&6q5eoOO&q-3<$6",
"@+#++*@#@+@*&&-&&&@$*@#wt-O65qO#6e03<+.O&6qwew@*3&",
"6303*<6<36<0<3<@--53663O o<6@3qww+.#<$6w&3O@OO#<#<",
"><3+###63OO@&5qq6r5OO&*qw6ww&oO@++60wewO@O*000ww6<",
"5&+5635-&*6wre5&@OO&w7ew6@XO@@6w6ww<*OO&-&0<#+oO&*"
};
